<svg class="SVGInline-svg" width="25px" height="24px" viewBox="0 0 25 24" version="1.1" xmlns="http://www.w3.org/2000/svg" xmlns:xlink="http://www.w3.org/1999/xlink">
    <g id="Icon/Delivery" stroke="none" stroke-width="1" fill="none" fill-rule="evenodd">
        <g>
            <rect id="Rectangle" x="0" y="0" width="25" height="24"></rect>
            <g id="Group" transform="translate(0.500000, 2.000200)" fill="#000000">
                <polygon id="Fill-1" points="0 1.58 9.637 1.58 9.637 0.005 0 0.005"></polygon>
                <polygon id="Fill-2" points="0 5.33 7.762 5.33 7.762 3.756 0 3.756"></polygon>
                <polygon id="Fill-3" points="0 9.079 5.887 9.079 5.887 7.505 0 7.505"></polygon>
                <path d="M6.1782,15.783 C6.7782,15.783 7.2662,16.271 7.2662,16.871 C7.2662,17.47 6.7782,17.959 6.1782,17.959 C5.5782,17.959 5.0902,17.47 5.0902,16.871 C5.0902,16.271 5.5782,15.783 6.1782,15.783 L6.1782,15.783 Z M17.2872,15.783 C17.8872,15.783 18.3752,16.271 18.3752,16.871 C18.3752,17.47 17.8872,17.959 17.2872,17.959 C16.6882,17.959 16.1992,17.47 16.1992,16.871 C16.1992,16.271 16.6882,15.783 17.2872,15.783 L17.2872,15.783 Z M16.1992,11.658 L22.1252,11.658 L22.1252,16.084 L19.8322,16.084 L19.7972,15.983 C19.4212,14.922 18.4122,14.209 17.2872,14.209 C16.9832,14.209 16.6842,14.26 16.4012,14.361 L16.1992,14.432 L16.1992,11.658 Z M16.1992,6.267 L18.2282,6.267 C18.5672,6.267 18.8922,6.429 19.0962,6.699 L21.6502,10.084 L16.1992,10.084 L16.1992,6.267 Z M2.6622,17.658 L3.6332,17.658 L3.6682,17.759 C4.0442,18.82 5.0532,19.533 6.1782,19.533 C7.3032,19.533 8.3122,18.82 8.6882,17.759 L8.7232,17.658 L14.7422,17.658 L14.7782,17.759 C15.1542,18.82 16.1622,19.533 17.2872,19.533 C18.4122,19.533 19.4212,18.82 19.7972,17.759 L19.8322,17.658 L23.6992,17.658 L23.6992,11.39 C23.6992,10.612 23.4422,9.843 22.9732,9.222 L20.3532,5.752 C19.8532,5.089 19.0592,4.693 18.2282,4.693 L16.1992,4.693 L16.1992,2.663 C16.1992,1.194 15.0052,7.10542736e-15 13.5372,7.10542736e-15 L11.8132,7.10542736e-15 L11.8132,1.575 L13.5372,1.575 C14.1372,1.575 14.6252,2.063 14.6252,2.663 L14.6252,16.084 L8.7232,16.084 L8.6882,15.983 C8.3122,14.922 7.3032,14.209 6.1782,14.209 C5.0532,14.209 4.0442,14.922 3.6682,15.983 L3.6332,16.084 L2.6622,16.084 C2.0632,16.084 1.5752,15.596 1.5752,14.996 L1.5752,11.256 L0.0002,11.256 L0.0002,14.996 C0.0002,16.464 1.1942,17.658 2.6622,17.658 L2.6622,17.658 Z" id="Fill-4"></path>
            </g>
        </g>
    </g>
</svg>