<svg class="SVGInline-svg" width="24px" height="24px" viewBox="0 0 24 24" version="1.1" xmlns="http://www.w3.org/2000/svg" xmlns:xlink="http://www.w3.org/1999/xlink">
    <g id="Icon/Time" stroke="none" stroke-width="1" fill="none" fill-rule="evenodd">
        <g transform="translate(1.000000, 1.000000)" fill="#000000" fill-rule="nonzero" id="Path">
            <path d="M16.5007734,18.4379336 L17.5245039,19.8143945 C18.0204063,19.4455508 18.4886797,19.0317187 18.9162617,18.5843711 L17.6761836,17.3991211 C17.3150313,17.7769453 16.9195469,18.1264961 16.5007734,18.4379336 Z"></path>
            <path d="M13.7167852,19.8520352 L14.2231289,21.4909922 C14.8138203,21.3085039 15.3933398,21.0737656 15.9454453,20.7932227 L15.1683984,19.2639219 C14.7029609,19.5003789 14.2145781,19.69825 13.7167852,19.8520352 Z"></path>
            <path d="M18.6606406,16.1779492 L20.0820898,17.1381289 C20.4289336,16.6246523 20.7337969,16.0786484 20.9883437,15.5152852 L19.4250547,14.8090937 C19.2104258,15.2841563 18.9532578,15.7446953 18.6606406,16.1779492 Z"></path>
            <polygon points="10.1637422 10.1423008 5.36060938 10.1423008 5.36060938 11.8576992 11.8791406 11.8576992 11.8791406 3.28070703 10.1637422 3.28070703"></polygon>
            <path d="M20.2846016,1.99413672 L20.2846016,5.17085937 C19.4780352,3.88347266 18.409875,2.77380469 17.1351641,1.90897266 C15.3150508,0.674136719 13.1861641,0.0214414062 10.9785586,0.0214414062 C8.04607031,0.0214414062 5.28915234,1.16342187 3.21552344,3.23696484 C1.14198047,5.31059375 0,8.06751172 0,11 C0,13.9324883 1.14198047,16.6894062 3.21552344,18.7630352 C5.28915234,20.8365781 8.04607031,21.9785586 10.9785586,21.9785586 C11.4559844,21.9785586 11.9365469,21.9475352 12.4068828,21.8863906 L12.1857656,20.1853008 C11.7884766,20.2369492 11.3823789,20.2631602 10.9786016,20.2631602 C5.87086328,20.2631602 1.71544141,16.1077383 1.71544141,11 C1.71544141,5.89226172 5.87086328,1.73683984 10.9786016,1.73683984 C14.2939414,1.73683984 17.3025273,3.48549609 18.9537734,6.28263281 L15.9961055,6.28263281 L15.9961055,7.99803125 L22,7.99803125 L22,1.99413672 L20.2846016,1.99413672 Z"></path>
            <path d="M20.2091055,11.7719336 C20.201457,11.8634141 20.1923477,11.9544648 20.1821641,12.0452148 L20.1829805,12.0452578 C20.134168,12.4793281 20.0551055,12.9107773 19.9461797,13.3310977 L21.60675,13.7613437 C21.7616523,13.1636055 21.8664961,12.5472187 21.9183164,11.9294141 L21.9170703,11.9293281 C21.921625,11.8769062 21.9261797,11.8245273 21.929832,11.7719336 L20.2091055,11.7719336 L20.2091055,11.7719336 Z"></path>
        </g>
    </g>
</svg>